<?xml version="1.0" encoding="UTF-8"?><svg id="_레이어_1" xmlns="http://www.w3.org/2000/svg" viewBox="0 0 514 259.79"><rect x="187.5" y="177.39" width="135" height="14"/><rect x="3.5" y="170.39" width="219" height="14"/><rect x="289.5" y="170.39" width="219" height="14"/><rect x="222.5" y="163.39" width="17" height="7"/><rect x="272.5" y="163.39" width="17" height="7"/><rect x="289.5" y="156.39" width="33" height="7"/><rect x="187.5" y="156.39" width="35" height="7"/><rect x="305.5" y="149.39" width="170" height="7"/><rect x="457.5" y="156.39" width="35" height="7"/><rect x="35.5" y="149.39" width="170" height="7" transform="translate(241 305.77) rotate(-180)"/><rect x="18.5" y="156.39" width="35" height="7" transform="translate(72 319.77) rotate(-180)"/><rect x="239.5" y="149.39" width="33" height="7"/><rect x="222.5" y="142.39" width="17" height="7"/><rect x="272.5" y="142.39" width="17" height="7"/><rect x="280.5" y="134.39" width="42" height="8"/><rect x="187.5" y="134.39" width="42" height="8"/><rect x="304.5" y="126.39" width="138" height="8"/><rect x="425.5" y="134.39" width="50" height="7"/><rect x="68.5" y="126.39" width="138" height="8" transform="translate(275 260.77) rotate(-180)"/><rect x="35.5" y="134.39" width="50" height="7" transform="translate(121 275.77) rotate(-180)"/><g><path d="m127.29,85.49v27.46h-17.01V43.98h52.92v9.41h7.6v22.71h-7.6v9.4h-35.91Zm0-9.4h26.5v-22.71h-26.5v22.71Z"/><path d="m230.37,112.95v-21.75h-26.5v21.75h-17.01v-50.16h7.51v-9.4h9.5v-9.41h26.5v9.41h9.5v9.4h7.51v50.16h-17.01Zm-26.5-31.16h26.5v-19h-9.41v-9.4h-7.6v9.4h-9.5v19Z"/><path d="m323.85,112.95h-43.42v-9.41h-9.4v-9.41h-7.6v-31.35h7.6v-9.4h9.4v-9.41h36.96v9.41h-27.55v9.4h-9.41v31.35h9.41v9.41h17.1v-20.9h-15.1v-9.4h32.11l-.1,39.71Z"/><path d="m393.86,112.95h-53.87V43.98h53.87v9.41h-36.86v17.1h36.86v9.41h-36.86v23.65h36.86v9.41Z"/></g><g><path d="m439.65,111.59v-6.92h-6.92v-6.92h6.92v-6.92h6.92v6.92h6.92v6.92h-6.92v6.92h-6.92Z"/><path d="m426,88.34v-6.92h-6.92v-6.92h6.92v-6.92h6.92v6.92h6.92v6.92h-6.92v6.92h-6.92Z"/><path d="m340.29,20.77v-6.92h-6.92v-6.92h6.92V0h6.92v6.92h6.92v6.92h-6.92v6.92h-6.92Z"/><path d="m68.32,91.75v-6.92h-6.92v-6.92h6.92v-6.92h6.92v6.92h6.92v6.92h-6.92v6.92h-6.92Z"/><path d="m95.28,34.27v-6.92h-6.92v-6.92h6.92v-6.92h6.92v6.92h6.92v6.92h-6.92v6.92h-6.92Z"/></g><g><path d="m35.31,247.01H3.27v-16.05h4.02v-4.98h19.01v-10.51h-14.03v6.04H3.27v-6.04h4.02v-4.98h23.99v4.98h4.02v10.51h-4.02v4.98H12.27v11.07h23.04v4.98Z"/><path d="m48.34,242.03h-2.97v-3.47h-3.52v-19.11h3.52v-4.48h2.97v-4.48h19.06v4.48h2.97v4.48h3.52v19.11h-3.52v3.47h-2.97v4.98h-19.06v-4.98Zm2.01-4.98h2.01v-4.93h3.52v-7.34h3.52v-7.39h3.02v-2.42h-9.1v4.48h-2.97v17.6Zm2.97,3.02v1.96h9.1v-4.98h2.97v-17.6h-1.96v5.88h-3.52v7.34h-3.52v7.39h-3.07Z"/><path d="m112.47,247.01h-32.04v-16.05h4.02v-4.98h19.01v-10.51h-14.03v6.04h-9v-6.04h4.02v-4.98h23.99v4.98h4.02v10.51h-4.02v4.98h-19.01v11.07h23.04v4.98Z"/><path d="m142.05,229.51h-16.05v-4.98h16.05v-9.05h-14.03v6.04h-9v-6.04h4.02v-4.98h23.99v4.98h4.02v9.05h-4.02v4.98h4.02v12.52h-4.02v4.98h-23.99v-4.98h-4.02v-6.04h9v6.04h14.03v-12.52Z"/><path d="m177.33,248.37h-7.1l4.94-18.67c.19-.67.36-1.35.5-2.04s.28-1.44.41-2.26c.13-.82.22-1.74.29-2.76.06-1.02.1-2.19.1-3.5v-8.74h7.3v8.74c0,1.31.03,2.48.1,3.5.06,1.02.16,1.94.29,2.76.13.82.26,1.57.41,2.26s.31,1.37.5,2.04l4.94,18.67h-7.1l-2.78-11.09-2.78,11.09Zm24.1-17.09h-2.64v17.57h-7.2v-38.93h7.2v14.88h2.64v-14.88h7.2v38.93h-7.2v-17.57Z"/><path d="m222.36,242.13h1.97c1.41,0,2.79-.06,4.15-.19,1.36-.13,2.74-.35,4.15-.67v6.14c-1.41.38-2.9.64-4.49.77s-3.24.19-4.97.19h-8.59v-37.97h7.78v31.73Zm22.27-10.85h-2.64v17.57h-7.2v-38.93h7.2v14.88h2.64v-14.88h7.2v38.93h-7.2v-17.57Z"/><path d="m257.3,210.4h22.85v7.06c0,1.82-.18,3.59-.53,5.3s-.85,3.34-1.49,4.87l-8.59,20.74h-8.4l9.7-22.7c.19-.48.38-.99.55-1.54s.33-1.1.46-1.66c.13-.56.22-1.1.29-1.61.06-.51.1-.98.1-1.39v-2.59h-14.93v-6.48Zm28.37-.48h7.92v38.93h-7.92v-38.93Z"/><path d="m306.93,248.37h-7.1l4.94-18.67c.19-.67.36-1.35.5-2.04.14-.69.28-1.44.41-2.26.13-.82.22-1.74.29-2.76.06-1.02.1-2.19.1-3.5v-8.74h7.3v8.74c0,1.31.03,2.48.1,3.5.06,1.02.16,1.94.29,2.76.13.82.26,1.57.41,2.26.14.69.31,1.37.5,2.04l4.94,18.67h-7.1l-2.78-11.09-2.78,11.09Zm24.1-17.09h-2.64v17.57h-7.2v-38.93h7.2v14.88h2.64v-14.88h7.2v38.93h-7.2v-17.57Z"/><path d="m379.99,235.74h-13.25v5.18h16.18v6.48h-40.22v-6.48h16.13v-5.18h-13.2v-15.65h26.45v-2.74h-26.45v-6.48h34.37v15.7h-26.45v2.69h26.45v6.48Z"/><path d="m394.19,224.8h3.94v-14.4h6.82v37.97h-17.57v-37.97h6.82v14.4Zm3.94,6.24h-3.94v11.09h3.94v-11.09Zm19.3.24h-2.64v17.57h-7.2v-38.93h7.2v14.88h2.64v-14.88h7.2v38.93h-7.2v-17.57Z"/><path d="m469.31,233.2h-16.18v2.16h13.3v13.49h-34.37v-13.49h13.15v-2.16h-16.13v-6h40.22v6Zm-2.45-15.17c0,1.44-.22,2.62-.65,3.55-.43.93-1.01,1.66-1.73,2.18-.72.53-1.55.9-2.5,1.1s-1.93.31-2.95.31h-19.68c-1.02,0-2.01-.1-2.95-.31s-1.78-.58-2.5-1.1c-.72-.53-1.3-1.25-1.73-2.18-.43-.93-.65-2.11-.65-3.55s.22-2.62.65-3.55c.43-.93,1.01-1.66,1.73-2.18.72-.53,1.55-.9,2.5-1.1.94-.21,1.93-.31,2.95-.31h19.68c1.02,0,2.01.1,2.95.31.94.21,1.78.58,2.5,1.1.72.53,1.3,1.26,1.73,2.18.43.93.65,2.11.65,3.55Zm-7.92,0c0-.45-.15-.75-.46-.91s-.89-.24-1.75-.24h-15.07c-.86,0-1.45.08-1.75.24-.3.16-.46.46-.46.91s.15.75.46.91c.3.16.89.24,1.75.24h15.07c.86,0,1.45-.08,1.75-.24.3-.16.46-.46.46-.91Zm-18.96,25.3h18.53v-2.45h-18.53v2.45Z"/><path d="m493.75,231.76h-12.19v10.37h1.97c2.18,0,4.34-.06,6.5-.19,2.16-.13,4.36-.35,6.6-.67v6.14c-2.18.29-4.45.52-6.82.7s-4.85.26-7.44.26h-8.59v-37.97h22.37v6.24h-14.59v8.64h12.19v6.48Zm7.92-.48h-5.14v-6.48h5.14v-14.88h7.92v38.93h-7.92v-17.57Z"/></g></svg>